<svg width="4599" height="4599" viewBox="0 0 4599 4599" fill="none" xmlns="http://www.w3.org/2000/svg">
<rect width="4599" height="4599" fill="#94C71D"/>
<path d="M1901.03 1671.86C1991.36 1672.94 2154.91 1783.38 2240.35 1832L2735.06 2112.99L3383.57 2480.71C3492.94 2542.77 3603.94 2604.79 3712.49 2668.29C3744.89 2687.24 3766.18 2703.11 3785.91 2735.07C3814.02 2781.19 3822.2 2836.74 3808.52 2888.98C3772.1 3027.56 3642.23 3033.61 3525.53 3055.4L3105.11 3134.1C3026.24 3148.88 2897.14 3164.43 2830.78 3202.68C2773.27 3247.35 2712.02 3363.95 2671.82 3430.18L2472.51 3758.66C2438.39 3814.87 2405.6 3872.06 2368.44 3926.63C2276.14 4061.83 2056.13 4017.7 2022.63 3857.71C2005.53 3776.04 1995.57 3688.41 1982.56 3605.45L1898.7 3072.32L1776.63 2291.17C1756.25 2160.99 1734 2030.29 1715.68 1899.87C1698.18 1775.3 1778.05 1683.94 1901.03 1671.86ZM703.973 1905.57C732.821 1903.57 819.362 1912.44 851.769 1914.59C921.626 1919.53 987.269 1924.25 1057.12 1931.93C1140.93 1941.14 1189.26 2029.8 1148.22 2103.99C1127.23 2141.93 1101.98 2155.51 1061.29 2165.92C1004.49 2166.68 923.775 2157.06 865.221 2153.06C823.541 2150.2 736.993 2146.54 700.849 2139.23C680.279 2135.23 660.757 2127.02 643.5 2115.13C555.006 2053.75 594.962 1923.46 703.973 1905.57ZM1199.12 926.649C1243.97 924.427 1277.34 929.807 1309.41 965.146C1373.58 1033.42 1431.8 1113.04 1495.96 1180.97C1573.07 1262.6 1586.59 1366.74 1462.69 1410.87C1434.73 1413.82 1407.33 1413.25 1382.06 1399.57C1343.53 1378.71 1118.04 1112.74 1107.79 1075.58C1099.72 1046.29 1103.57 1012.86 1118.37 986.371C1136.56 953.785 1164.74 937.37 1199.12 926.649ZM2253.45 592.084C2285.21 591.421 2313.66 594.349 2340.88 612.835C2360.11 625.898 2380.12 649.55 2384.46 672.904C2394.14 725.057 2373.42 1063.08 2348.09 1099.6C2325.47 1132.2 2300.33 1148.21 2261.6 1155.88C2236.77 1157.56 2213.98 1154.64 2191.75 1142.79C2167.63 1129.93 2141.39 1104.29 2134.4 1077.01C2122.03 1028.81 2147.21 687.017 2170.07 648.844C2189.06 617.139 2218.1 600.095 2253.45 592.084Z" fill="black"/>
</svg>
