<svg width="1291" height="1352" viewBox="0 0 1291 1352" fill="none" xmlns="http://www.w3.org/2000/svg">
<path d="M570.929 0.173578C663.904 -2.55411 758.612 26.665 817.691 102.09C826.063 112.777 832.631 123.574 839.77 135.087C848.811 136.691 861.132 136.763 870.779 138.134C892.016 141.152 912.298 146.216 932.33 153.819C982.208 172.203 1022.61 209.842 1044.48 258.288C1063.4 300.729 1066.18 351.485 1049.45 395.115C1066.42 401.148 1095.55 422.646 1108.15 435.229C1147.43 474.458 1165.89 518.616 1167.13 573.506C1184.22 584.494 1201.73 600.84 1214.25 616.802C1239.89 649.806 1254.07 690.268 1254.63 732.057C1254.71 743.736 1253.06 755.839 1251.7 767.447C1254.95 770.504 1258.33 774.662 1261.02 778.227C1318.49 854.598 1284.22 946.825 1234.52 1015.72C1145.58 1138.98 1013.22 1218.58 866.502 1252.82C860.108 1254.31 853.429 1255.48 847.181 1257.56L846.269 1257.87C841.4 1266.01 838.767 1272.11 832.603 1279.97C807.772 1311.45 771.052 1331.02 733.711 1343.4C703.58 1353.39 645.605 1360.67 633.411 1321.34C630.784 1302.28 634.752 1295.23 644.952 1280.16C624.83 1281.79 594.189 1279.45 572.751 1279.57C558.197 1293.69 545.034 1304.74 526.498 1314.26C489.677 1332.63 441.11 1347.71 400.398 1336.54C376.23 1329.91 363.131 1305.74 374.636 1282.85C382.647 1266.92 397.124 1256.73 412.808 1248.88C399.639 1244.69 386.342 1235.71 373.448 1231.56C370.844 1230.73 357.964 1231.74 354.246 1231.86C347.243 1232.07 340.233 1232 333.234 1231.68C251.513 1227.79 157.998 1175.05 117.313 1103.19C109.95 1090.19 105.163 1075.06 100.958 1060.77C85.3292 1059.85 64.3 1051.5 52.7232 1040.87C30.8715 1020.79 26.0982 1003.18 24.2945 975.397C-2.56274 940.551 -5.85378 905.489 8.14245 864.208C4.40013 853.505 1.45129 836.151 0.539687 825.03C-3.09655 780.657 11.906 739.766 37.5736 704.112C42.3771 697.434 49.5784 689.544 55.053 683.089C54.2109 660.776 54.9848 647.188 60.1244 625.224C70.8208 579.519 101.654 534.768 134.328 501.744C139.972 496.039 150.694 485.562 157.305 481.496C143.888 443.632 144.407 402.225 158.771 364.708C182.949 301.642 237.936 260.829 297.696 234.293C300.63 229.442 305.252 223.76 307.566 219.826C310.893 212.562 311.269 203.138 313.032 195.503C321.834 157.396 338.654 121.085 364.127 91.2817C417.298 29.0689 491.395 5.46475 570.929 0.173578Z" fill="black"/>
<path d="M1242.89 786.402C1251.65 791.646 1264.56 822.349 1267.19 832.627C1279.5 880.621 1265.81 925.544 1242.58 966.978C1170.29 1095.93 1027.45 1191.7 885.713 1228.64C752.497 1263.36 575.695 1277.8 441.575 1238.51C428.974 1234.82 399.162 1224.59 388.343 1217.67C359.577 1199.25 342.174 1159.06 333.947 1127.42C328.017 1098.74 328.203 1069.14 334.491 1040.54C347.826 1046.08 382.718 1051.98 398.405 1054.96C530.089 1080.37 665.913 1074.31 794.811 1037.27C806.707 1065.82 820.087 1087.19 847.746 1103C869.665 1115.53 886.646 1117.16 911.261 1117.25C966.46 1174.31 1070.14 1157.87 1100.14 1083.16C1105.88 1068.86 1107.34 1055.51 1107.25 1040.26C1145.13 1001.08 1145.13 950.279 1123.36 902.766C1158.27 884.953 1199.03 849.716 1222.51 818.373C1230.29 807.997 1236.41 797.593 1242.89 786.402Z" fill="#95C71F"/>
<path d="M849.236 154.748C902.178 159.154 951.805 174.984 990.239 213.238C1022.04 244.897 1041.86 289.174 1041.75 334.324C1041.65 380.255 1020.89 418.146 989.062 449.842C897.783 540.75 679.752 596.573 552.378 612.311C520.473 616.151 488.368 618.093 456.232 618.127C432.805 618.291 390.802 614.799 368.234 610.14C410.466 501.254 493.067 446.398 598.839 405.56C646.388 386.904 694.567 372.327 742.174 353.673C804.192 329.374 869.686 298.638 908.475 241.835C911.539 237.343 921.061 223.144 914.924 218.392C901.697 208.152 896.933 226.31 890.679 234.286C885.107 242.133 881.366 246.806 875.864 252.993C874.415 245.308 873.781 236.793 872.305 228.811C867.687 203.27 859.941 178.395 849.236 154.748Z" fill="#95C71F"/>
<path d="M332.449 820.498C341.532 824.231 364.74 829.37 374.873 831.654C461.915 850.526 551.75 852.705 639.604 838.06C656.382 835.254 677.08 831.452 693.407 826.327C697.962 834.189 702.259 841.396 708.235 848.311C705.54 867.573 707.135 893.213 711.885 912.036C723.204 956.903 748.292 983.811 786.851 1006.85C787.764 1011.02 788.704 1015.18 789.672 1019.33C783.041 1020.68 772.057 1024.29 765.232 1026.35C743.786 1032.54 713.348 1038.3 691.303 1041.6C597.833 1055.04 502.835 1053.82 409.738 1037.99C392.357 1035 375.054 1031.57 357.844 1027.71C350.375 1025.97 341.969 1023.32 334.802 1021.85L334.123 1021.71C298.793 948.547 303.159 894.32 332.449 820.498Z" fill="#95C71F"/>
<path d="M747.962 590.361L748.617 590.498C747.99 592.198 739.423 599.117 736.908 601.647C731.406 607.209 726.14 613 721.125 619.004C705.022 638.394 692.652 660.599 684.642 684.495C673.901 717.336 670.704 753.617 679.313 787.23C681.264 794.856 682.817 802.571 686.383 809.667C577.081 835.628 463.128 834.862 354.183 807.432C348.055 805.691 341.951 803.867 335.875 801.945C332.64 792.14 330.636 777.948 329.812 767.453C325.722 715.358 337.424 673.722 360.476 627.951C481.498 650.366 630.874 625.838 747.962 590.361Z" fill="#95C71F"/>
<path d="M996.554 729.921C1010.71 728.319 1039.25 729.928 1053.29 731.035C1100.3 766.494 1108.59 827.524 1097.11 881.542C1000.05 877.447 892.947 915.017 816.247 974.159L796.201 989.681C778.461 980.942 763.061 968.08 751.297 952.182C730.861 924.264 721.388 883.165 726.758 849.237C802.532 773.98 890.119 735.269 996.554 729.921Z" fill="#95C71F"/>
<path d="M874.636 562.804C958.364 559.998 1035.46 613.683 1045.94 699.918C1046.45 704.075 1046.83 708.163 1047.14 712.335C1036 711.875 1025.57 710.719 1014.25 710.816C934.989 711.534 872.957 727.265 804.225 765.621C775.194 782.536 742.096 806.971 718.616 830.864C703.23 807.347 694.419 780.147 693.089 752.083C691.368 706.123 711.888 655.182 743.391 621.715C777.416 585.207 824.737 563.968 874.636 562.804Z" fill="#95C71F"/>
<path d="M1069.54 900.63C1079.35 899.906 1089.93 900.08 1099.77 900.142C1118.21 931.521 1126.37 966.388 1111.48 1001.12C1096.93 1035.06 1054.84 1057.22 1021.46 1069.4C975.954 1086 911.428 1111.55 864.344 1090.67C859.963 1088.57 855.756 1086.14 851.758 1083.37C824.643 1064.47 812.481 1036.78 806.805 1005.29C810.099 1003.03 813.651 1000.09 816.793 997.53C888.868 938.777 976.246 906.445 1069.54 900.63Z" fill="#95C71F"/>
<path d="M147.596 748.842C156.244 754.761 165.371 764.204 176.441 771.564C209.571 793.34 247.018 807.699 286.216 813.653C294.563 814.997 305.385 816.585 313.739 816.759C311.083 823.082 308.538 829.461 306.108 835.874C283.953 895.741 284.907 960.622 311.813 1018.71L291.189 1017.52C235.627 1014.49 174.039 991.165 130.63 956.395C113.116 936.98 102.483 895.693 101.698 871.675C100.25 827.372 118.443 781.495 147.596 748.842Z" fill="#95C71F"/>
<path d="M293.803 256.783C300.727 260.537 290.771 268.099 287.989 270.891C273.276 285.66 262.014 307.471 262.55 328.651C262.824 339.455 281.511 334.856 287.985 333.814C291.843 335.385 295.934 337.255 299.782 338.926C298.493 357.142 294.947 387.415 288.887 404.64C283.03 397.48 266.413 373.328 256.524 383.425C254.348 385.647 252.9 390.695 254.577 393.475C260.226 402.84 269.491 409.926 276.069 418.738C282.021 426.575 287.849 434.666 293.198 442.662C322.092 485.861 344.136 553.065 345.374 604.955C338.541 603.752 333.641 602.35 327.016 600.465C322.271 599.059 317.541 597.606 312.825 596.105C260.519 579.132 208.626 543.549 183.359 493.581C164.592 457.255 161.458 414.848 174.679 376.158C193.268 321.057 243.529 281.834 293.803 256.783Z" fill="#95C71F"/>
<path d="M1041.3 412.275C1047.96 414.294 1054.41 418.79 1060.3 422.229C1108.03 450.118 1140.18 498.843 1146.79 553.754C1149.39 575.315 1150.13 575.596 1137.97 594.491C1117.18 626.79 1088.91 644.877 1058.88 666.879C1048.72 645.806 1049.57 640.524 1033.93 618.252C1007.74 582.657 965.03 556.373 921.846 548.081C905.645 544.97 890.782 544.378 874.344 543.863C937.985 518.426 1008.08 474.096 1041.3 412.275Z" fill="#95C71F"/>
<path d="M202.831 552.398C205.669 553.655 222.537 569.485 227.481 573.095C255.827 593.617 287.58 608.963 321.274 618.425C327.076 620.085 335.797 622.746 341.624 623.318C312.181 679.784 303.726 735.8 314.978 798.035C308.036 797.805 301.47 796.802 294.603 795.869C238.524 786.615 196.762 769.602 155.271 729.993C152.195 716.413 149.542 705.78 148.891 691.734C146.322 636.222 168.01 592.58 202.831 552.398Z" fill="#95C71F"/>
<path d="M124.776 975.365C133.032 982.211 148.319 991.807 157.872 997.001C209.85 1025.3 257.526 1037.11 316.118 1036.89C305.355 1086.88 309.768 1135.08 333.8 1180.66C337.095 1186.82 340.639 1192.84 344.422 1198.71C346.253 1201.49 353.705 1211.08 354.345 1213.16L353.367 1213.68C271.641 1214.65 179.321 1168.96 136.018 1097.82C111.855 1058.12 113.167 1018.8 124.776 975.365Z" fill="#95C71F"/>
<path d="M1160.98 592.711C1174.47 599.494 1194.07 620.605 1202.96 632.891C1227.47 666.656 1238.69 708.272 1234.46 749.775C1232.65 769.26 1232.28 767.937 1222.21 784.698C1198.63 823.918 1165.68 853.444 1127.9 878.639C1123.73 881.494 1120.35 883.291 1115.88 885.686C1120.7 860.958 1122.57 846.724 1120.47 821.334C1117.05 780.889 1097.64 743.473 1066.54 717.387C1066.52 707.708 1064.86 695.166 1063.6 685.375C1105.84 658.185 1134.72 636.527 1160.98 592.711Z" fill="#95C71F"/>
<path d="M63.9605 700.488C86.4197 724.179 93.4448 733.037 125.881 746.588C98.0766 779.143 82.3152 825.125 82.359 868.07C82.3716 880.465 85.4641 892.283 86.2372 904.17L86.2735 904.797C74.2676 899.65 63.0056 892.917 52.7898 884.776C28.6997 865.835 23.4436 860.431 20.114 829.651C14.5994 778.67 33.7106 738.984 63.9605 700.488Z" fill="#95C71F"/>
<path d="M163.916 499.73C165.63 500.896 170.18 509.21 171.607 511.555C177.186 520.853 183.428 529.739 190.285 538.14C181.247 548.476 172.583 558.513 164.99 570.014C133.855 617.175 120.576 675.347 136.288 730.548C128.552 727.895 121.972 724.81 114.79 720.959C98.9168 711.572 85.5945 697.93 74.2705 683.487C72.8838 675.124 72.9513 662.705 73.9083 654.271C79.3899 605.973 105.385 561.188 137.661 525.719C145.972 516.585 154.377 507.519 163.916 499.73Z" fill="#95C71F"/>
<path d="M22.138 883.039C24.0334 883.77 33.9764 893.909 36.8943 896.263C53.7413 910.016 72.9672 920.566 93.6197 927.384C97.1858 937.941 104.236 952.439 110.33 961.562C106.327 972.251 104.015 980.35 101.28 991.297L100.306 998.365C73.3037 988.797 49.3706 980.05 32.6365 955.134C18.6019 934.243 17.1968 907.106 22.138 883.039Z" fill="#95C71F"/>
<path d="M329.313 211.575C331.25 199.035 334.718 186.343 338.777 174.334C356.872 119.659 396.21 74.5617 447.929 49.2055C519.655 13.8407 614.896 9.50242 690.271 35.4358C752.205 56.7479 799.707 96.8707 828.634 155.895C842.766 183.218 849.627 208.852 855.08 239.169C856.857 249.06 857.365 259.195 858.981 268.72C827.248 293.767 800.62 308.766 763.057 324.736C749.314 330.578 733.643 337.425 719.469 342.018C657.581 365.563 596.516 383.001 536.222 411.79C513.912 423.139 492.07 435.015 471.672 449.61C468.753 451.698 465.819 453.783 462.79 455.706C461.652 457.418 447.975 467.656 445.29 469.922C409.779 499.893 380.649 537.306 361.404 579.461C357.399 531.974 332.917 462.562 303.477 424.866C305.856 416.914 307.984 408.89 309.858 400.805C311.888 391.664 313.586 381.729 315.283 372.504C316.849 363.281 317.326 356.07 317.995 346.743C322.803 348.982 327.768 350.868 332.851 352.385C370.751 363.708 393.503 347.218 411.068 313.254C414.018 307.55 416.04 301.233 419.003 295.561C422.554 288.762 428.006 282.752 429.947 275.082C440.257 232.167 394.326 196.988 355.505 219.391C345.566 213.273 340.886 212.114 329.313 211.575Z" fill="#878E99"/>
<path d="M303.477 424.868C305.856 416.916 307.984 408.892 309.858 400.807C310.963 403.812 324.98 419.295 328.074 422.237C355.6 448.418 393.479 450.481 429.207 453.974C436.972 454.733 456.662 452.902 462.79 455.708C461.652 457.42 447.975 467.658 445.29 469.924C409.779 499.895 380.649 537.308 361.404 579.463C357.399 531.976 332.917 462.564 303.477 424.868Z" fill="#6D849A"/>
<path d="M309.859 400.807C311.889 391.666 313.587 381.731 315.285 372.506C323.994 380.225 328.836 385.974 339.176 392.536C376.544 416.089 422.995 421.776 466.342 419.412C478.76 418.734 491.269 416.639 503.561 415.235C511.891 414.283 529.354 408.998 536.223 411.792C513.913 423.141 492.072 435.017 471.673 449.612C468.754 451.7 465.821 453.785 462.792 455.708C456.664 452.902 436.973 454.733 429.208 453.974C393.48 450.481 355.601 448.418 328.075 422.237C324.981 419.295 310.964 403.812 309.859 400.807Z" fill="#499E8F"/>
<path d="M828.633 155.895C842.765 183.217 849.626 208.851 855.08 239.169C856.856 249.059 857.364 259.194 858.98 268.72C827.247 293.766 800.619 308.765 763.056 324.735C749.314 330.577 733.642 337.425 719.468 342.018C721.355 337.491 741.506 324.238 746.848 319.746C788.381 284.837 822.908 237.889 827.045 182.111C827.505 175.887 826.857 160.918 828.633 155.895Z" fill="#499E8F"/>
<path d="M712.586 188.178C718.465 187.924 735.815 188.33 727.457 200.782C724.643 204.974 715.853 204.648 710.921 204.634C712.51 208.298 713.401 211.972 714.125 215.884C718.346 239.994 712.795 264.793 698.698 284.804C684.245 305.677 662.032 319.889 637.02 324.262C608.566 329.222 585.832 321.74 562.783 305.68C552.59 297.887 544.078 288.112 537.761 276.945C527.098 257.918 522.477 231.962 528.495 210.767C525.386 208.892 523.44 207.137 523.051 203.334C521.979 192.843 545.354 194.838 552.179 194.589L589.259 193.236L712.586 188.178Z" fill="black"/>
<path d="M484.576 51.5973C485.687 51.6913 486.788 51.8842 487.866 52.1718C491.071 53.0213 493.437 55.0889 495.022 57.9823C496.529 60.6751 496.78 63.8931 495.706 66.7865C492.986 74.1423 482.56 76.9681 475.591 80.0607C461.716 86.218 452.356 91.1344 440.406 100.64C432.086 107.258 421.659 120.193 413.09 123.816C399.431 123.57 398.784 109.069 405.491 101.253C421.999 82.0168 459.653 55.3632 484.576 51.5973Z" fill="#C0C5CC"/>
<path d="M532.385 37.6836C542.246 38.0096 549.628 45.6997 543.694 55.3438C540.391 60.7114 532.819 61.5867 527.042 62.5484C508.921 62.772 506.173 40.6371 532.385 37.6836Z" fill="#C0C5CC"/>
<path d="M360.195 1077.11C372.206 1076.25 375.909 1082.24 375.632 1093.77C375.091 1116.26 381.629 1136.7 391.588 1156.58C396.876 1167.14 414.934 1183.74 394.761 1191.54C387.972 1191.98 384.351 1190.18 380.449 1184.25C363.764 1158.88 347.904 1114.7 352.058 1084.71C354.67 1080.6 355.983 1079.52 360.195 1077.11Z" fill="#C8E88F"/>
<path d="M1238.03 836.256C1244.51 836.277 1249.81 838.7 1251.67 845.545C1258.87 871.952 1252.9 901.993 1243.03 927.014C1240.9 932.404 1238.61 936.136 1233.12 938.232C1210.11 939.284 1220.74 916.903 1225.32 905.628C1231.12 891.367 1230.51 871.722 1229.29 856.562C1228.39 845.504 1226.37 841.256 1238.03 836.256Z" fill="#C8E88F"/>
<path d="M844.385 333.519C849.839 333.196 854.178 334.536 857.055 339.476C864.041 351.485 844.065 360.972 835.936 365.904C769.614 406.139 693.324 422.967 620.827 447.96C601.413 454.589 582.44 462.446 564.024 471.483C541.132 482.873 519.923 497.022 500.31 513.406C492.089 520.273 482.514 532.309 473.595 537.243C462.083 537.391 456.165 525.269 461.932 518.699C539.697 430.1 662.454 415.628 766.828 373.828C782.987 367.467 798.7 360.029 813.864 351.563C822.222 346.803 836.319 336.247 844.385 333.519Z" fill="#C8E88F"/>
<path d="M901.695 284.71C910.513 284.159 919.881 286.224 917.192 297.228C914.747 307.211 897.662 322.167 889.116 327.74C888.078 327.989 885.006 328.509 884.045 328.29C854.318 321.473 896.039 289.22 901.695 284.71Z" fill="#C8E88F"/>
<path d="M349.715 854.249C351.817 854.305 353.891 854.764 355.819 855.6C359.791 857.292 361.232 860.997 362.742 864.653C361.119 874.395 358.688 884.499 357.079 894.548C351.966 926.484 355.106 950.258 362.69 980.828C360.183 987.521 359.462 990.195 352.173 992.388C349.942 992.256 347.25 992.131 345.209 991.365C342.259 990.264 339.907 985.877 339.063 982.959C329.481 949.931 329.121 913.469 335.816 879.848C337.158 873.107 338.083 866.282 340.937 860.092C342.765 856.129 345.85 855.537 349.715 854.249Z" fill="#C8E88F"/>
<path d="M374.234 658.022C374.693 658.005 375.153 657.991 375.613 657.982C382.797 657.889 389.594 662.71 388.348 670.478C386.545 681.717 381.284 692.929 379.166 704.154C375.1 725.707 373.683 747.225 373.447 769.098C370.305 774.265 369.646 775.386 364.051 777.817C362.504 777.879 360.804 777.754 359.307 777.35C356.057 776.466 353.057 774.439 351.463 771.431C344.974 759.182 356.982 696.432 361.453 680.784C363.845 672.414 366.135 662.519 374.234 658.022Z" fill="#C8E88F"/>
<path d="M1035.98 749.837C1047.59 748.995 1054.36 759.837 1059.71 768.772C1064.71 777.079 1068.75 785.923 1071.77 795.129C1076.65 810.011 1081.56 838.478 1078.44 854.934C1077.69 858.875 1073.68 861.09 1070.43 862.984C1056.63 865.372 1055.28 851.25 1055.26 841.139C1055.19 816.529 1049.76 793.409 1034.42 773.577C1027.01 763.981 1023.81 757.184 1035.98 749.837Z" fill="#C8E88F"/>
<path d="M913.685 584.144C924.432 584.467 939.254 590.59 948.664 595.41C981.692 612.321 1004.14 642.786 1015.2 677.743C1014.9 678.683 1014.58 679.616 1014.23 680.535C1012.34 685.514 1010.58 687.255 1005.88 689.33C1000.89 689.811 995.121 688.857 993.192 684.01C985.558 664.767 978.927 650.817 963.841 635.369C956.959 628.241 949.005 622.233 940.264 617.564C933.953 614.211 924.696 610.64 917.669 608.872C902.7 605.108 897.553 591.275 913.685 584.144Z" fill="#C8E88F"/>
<path d="M1079.41 920.483C1086.05 919.564 1090.45 922.454 1093.33 928.714C1100.27 943.791 1102.1 994.194 1084.75 1002.45C1069.29 1003.61 1068.22 992.349 1071.78 980.483C1077.14 962.586 1074.44 948.617 1069.72 930.964C1072.47 924.557 1073.6 923.77 1079.41 920.483Z" fill="#C8E88F"/>
<path d="M149.318 786.792C155.338 787.398 163.698 791.116 161.716 798.748C159.187 808.491 153.168 817.439 149.952 827.474C142.17 851.756 142.987 878.936 150.254 903.253C151.616 907.849 156.542 918.963 155.955 923.19C155.841 924.033 155.623 924.861 155.306 925.655C153.514 930.147 149.837 931.881 145.66 933.524C134.877 931.79 131.178 922.939 128.102 913.455C116.454 877.557 118.252 836.227 134.81 802.14C138.044 795.482 142.009 789.166 149.318 786.792Z" fill="#C8E88F"/>
<path d="M201.361 357.844C210.61 356.654 212.88 359.94 216.501 367.833C215.326 372.605 212.99 379.156 211.316 383.88C199.288 417.639 205.979 454.918 223.882 485.294C229.932 495.561 228.18 501.261 217.835 506.526C205.617 507.031 199.313 489.565 195.07 480.341C183.686 455.592 178.799 427.65 183.19 400.62C185.38 387.142 189.853 366.454 201.361 357.844Z" fill="#C8E88F"/>
<path d="M1058.3 450.313C1076.12 450.262 1102.03 486.115 1109.46 501.106C1117.03 516.374 1129.59 542.277 1126.32 559.692C1125.67 563.125 1121.83 565.345 1118.89 566.618C1105.77 566.9 1104.08 558.146 1101.61 546.837C1096.72 523.802 1083.93 499.919 1067.36 483.267C1058.23 474.094 1035.95 461.997 1058.3 450.313Z" fill="#C8E88F"/>
<path d="M197.38 595.285C207.244 594.797 209.426 597.543 213.052 606.099C211.283 611.76 207.428 618.59 204.81 624.121C199.471 635.176 195.742 646.936 193.735 659.047C191.578 671.808 192.018 683.604 192.59 696.452C193.125 708.492 195.382 713.444 183.711 719.189C176.897 719.147 174.666 717.141 170.576 711.933C166.849 690.749 167.335 669.043 172.007 648.048C175.34 633.595 184.655 603.28 197.38 595.285Z" fill="#C8E88F"/>
<path d="M142.48 1015.17C150.427 1014.86 156.779 1017.74 156.861 1026.12C157.126 1053.35 166.742 1074.15 182.837 1095.7C189.233 1104.26 188.03 1110.6 178.162 1116.07C166.034 1117.32 155.841 1100.52 150.78 1090.91C140.772 1071.9 130.991 1044.62 134.991 1022.88C135.678 1019.15 139.448 1016.76 142.48 1015.17Z" fill="#C8E88F"/>
<path d="M1167.67 634.444C1169.33 634.357 1173.04 634.244 1174.51 634.777C1183.44 638.025 1192.68 653.216 1196.87 660.59C1208.25 680.613 1215.1 702.96 1216.1 726.01C1216.55 736.121 1218.65 747.938 1208.09 753.258C1194.75 754.004 1192.18 747.458 1192.28 735.724C1192.56 710.884 1187.27 689.694 1173.8 668.677C1167.5 658.837 1149.97 642.479 1167.67 634.444Z" fill="#C8E88F"/>
<path d="M63.6966 733.15C70.3741 732.997 78.7184 738.095 76.7159 745.455C74.5163 753.526 69.1162 762.307 65.7638 770.427C56.9961 791.66 57.8946 811.861 57.1779 834.159C53.7851 838.497 52.7327 839.855 47.552 841.596C30.9572 840.594 33.7978 826.401 33.8996 813.686C33.983 803.247 35.5663 791.806 37.9979 781.708C40.0874 773.143 42.8833 764.759 46.3568 756.66C50.1723 747.893 54.6488 736.744 63.6966 733.15Z" fill="#C8E88F"/>
<path d="M138.298 547.928C143.647 547.377 148.808 548.146 151.716 553.407C155.423 560.117 149.93 566.897 146.004 572.149C132.13 590.708 120.694 611.2 114.757 633.718C112.693 641.387 111.166 649.193 108.978 656.759C107.46 662.006 105.17 663.683 100.502 665.986C88.2838 667.887 85.4427 657.328 87.2822 647.387C92.5082 619.139 114.481 564.638 138.298 547.928Z" fill="#C8E88F"/>
<path d="M820.488 1262.66L821.045 1263.51C799.697 1303 702.658 1348.88 659.706 1326.36C640.726 1311.16 661.937 1284.33 676.942 1280.2C688.533 1277.01 717.229 1276.72 730.163 1275.39C760.399 1272.11 790.517 1267.87 820.488 1262.66Z" fill="#FB933D"/>
<path d="M437.306 1257.51C440.264 1257.22 465.203 1264.22 470.28 1265.44C495.992 1271.61 521.095 1274.21 547.186 1277.21C529.223 1293.23 510.754 1302.29 488.548 1310.42C464.675 1318.98 431.917 1326.39 406.77 1319.47C395.771 1316.44 385.491 1305.2 390.803 1293.43C398.751 1275.8 420.49 1264.82 437.306 1257.51Z" fill="#FB933D"/>
<path d="M559.609 209.825C562.991 209.543 567.702 209.544 571.173 209.457C562.201 238.086 572.756 266.146 597.4 283.026C612.225 292.992 630.424 296.604 647.932 293.058C669.964 288.703 683.073 275.528 694.865 257.741C690.895 267.731 689.383 270.949 683.094 279.569C650.108 320.42 589.273 320.982 557.12 278.217C541.086 256.891 539.668 236.51 543.487 210.848C548.593 210.324 554.432 210.123 559.609 209.825Z" fill="#FEFEFE"/>
<path d="M593.911 213.417C602.553 210.734 611.736 215.546 614.445 224.178C617.154 232.809 612.366 242.005 603.741 244.738C597.957 246.571 591.633 245.065 587.296 240.82C582.959 236.576 581.319 230.286 583.029 224.465C584.578 219.193 588.663 215.046 593.911 213.417Z" fill="#FEFEFE"/>
<path d="M329.592 226.953C343.604 225.996 343.219 233.292 354.722 235.815C358.666 236.183 364.059 232.714 367.252 231.035C383.582 222.756 401.001 228.67 410.698 244.197C416.83 254.015 419.56 273.898 408.566 281.944C406.976 283.107 404.339 281.967 402.532 281.453C384.936 272.821 373.528 255.865 355.448 249.244C339.332 243.342 325.192 247.419 310.469 254.101C311.786 240.613 314.699 230.356 329.592 226.953Z" fill="#FEFEFE"/>
<path d="M332.437 262.455C360.915 260.044 367.427 277.491 391.274 292.798C372.912 300.006 347.705 305.855 328.399 309.813C313.359 313.184 293.525 316.844 278.559 318.767C280.658 309.986 284.178 301.607 288.981 293.96C298.736 278.577 314.563 266.543 332.437 262.455Z" fill="#FB933D"/>
<path d="M395.755 307.771L396.277 308.625C394.682 312.629 392.333 315.808 389.977 319.335C370.977 347.771 351.519 342.784 323.806 332.819C320.026 331.115 315.969 329.969 312.006 328.728C342.359 322.902 366.581 317.115 395.755 307.771Z" fill="#FB933D"/>
<path d="M1086.09 1057.69C1086.32 1058.11 1086.55 1058.53 1086.78 1058.95C1086.04 1067.26 1082.6 1075.49 1079.23 1083.05C1069.75 1104.3 1049.19 1119.72 1027.52 1127.41C1002.23 1136.13 974.504 1134.52 950.391 1122.91C945.689 1120.63 941.015 1117.6 936.551 1114.84C981.121 1108.09 1047.67 1081.94 1086.09 1057.69Z" fill="#878E99"/>
<path d="M45.7891 994.07C64.6027 1006.52 76.915 1010.23 97.9018 1016.94C97.2192 1025.77 97.7548 1033.09 98.3796 1041.83C70.7181 1037.47 52.2883 1021.44 45.7891 994.07Z" fill="#878E99"/>
</svg>
