<svg width="6409" height="2521" viewBox="0 0 6409 2521" fill="none" xmlns="http://www.w3.org/2000/svg">
<rect x="2933" width="3056" height="2053" fill="#91C31C"/>
<path d="M5495.53 1929.84C5312.21 1929.84 5170.77 1871.36 5071.21 1754.42C4973.23 1637.47 4924.24 1479.44 4924.24 1280.32C4924.24 1082.78 4973.23 926.326 5071.21 810.962C5170.77 694.017 5312.21 635.545 5495.53 635.545C5620.38 635.545 5723.1 663.201 5803.69 718.512C5885.87 773.824 5945.13 850.47 5981.48 948.45L5732.58 1059.86C5718.36 1007.71 5691.49 965.044 5651.98 931.857C5612.47 897.09 5560.32 879.706 5495.53 879.706C5411.77 879.706 5348.56 906.572 5305.89 960.303C5263.22 1012.45 5241.89 1082.78 5241.89 1171.28V1396.47C5241.89 1481.81 5263.22 1551.35 5305.89 1605.08C5348.56 1658.81 5411.77 1685.67 5495.53 1685.67C5566.64 1685.67 5621.96 1667.5 5661.46 1631.15C5702.55 1593.23 5734.16 1546.61 5756.28 1491.29L5988.59 1602.71C5949.08 1711.75 5886.66 1793.93 5801.32 1849.24C5717.57 1902.97 5615.63 1929.84 5495.53 1929.84Z" fill="white"/>
<path d="M4506.11 483.833C4444.47 483.833 4399.44 469.61 4370.99 441.164C4342.54 411.138 4328.32 374.791 4328.32 332.122V284.712C4328.32 240.462 4342.54 204.115 4370.99 175.669C4399.44 147.223 4444.47 133 4506.11 133C4567.74 133 4612.78 147.223 4641.23 175.669C4669.67 204.115 4683.89 240.462 4683.89 284.712V332.122C4683.89 374.791 4669.67 411.138 4641.23 441.164C4612.78 469.61 4567.74 483.833 4506.11 483.833ZM4354.4 1901.39V663.991H4657.82V1901.39H4354.4Z" fill="white"/>
<path d="M2933.03 2375.49V663.991H3236.45V867.854H3245.93C3268.06 796.739 3309.93 740.637 3371.57 699.548C3434.78 656.879 3506.69 635.545 3587.28 635.545C3693.16 635.545 3781.66 660.83 3852.78 711.401C3923.89 761.971 3978.41 835.457 4016.34 931.857C4054.27 1026.68 4073.23 1142.83 4073.23 1280.32C4073.23 1417.81 4054.27 1535.54 4016.34 1633.52C3978.41 1729.92 3923.89 1803.41 3852.78 1853.98C3781.66 1904.55 3693.16 1929.84 3587.28 1929.84C3506.69 1929.84 3435.57 1908.5 3373.94 1865.83C3312.3 1823.16 3269.64 1766.27 3245.93 1695.16H3236.45V2375.49H2933.03ZM3490.09 1678.56C3569.11 1678.56 3633.11 1652.49 3682.1 1600.34C3731.09 1546.61 3755.59 1476.28 3755.59 1389.36V1176.02C3755.59 1087.52 3731.09 1017.19 3682.1 965.044C3633.11 911.313 3569.11 884.447 3490.09 884.447C3442.68 884.447 3399.22 893.139 3359.71 910.522C3321.79 926.326 3291.76 949.24 3269.64 979.267C3247.51 1009.29 3236.45 1044.06 3236.45 1083.57V1477.07C3236.45 1519.74 3247.51 1556.09 3269.64 1586.11C3291.76 1616.14 3321.79 1639.05 3359.71 1654.86C3399.22 1670.66 3442.68 1678.56 3490.09 1678.56Z" fill="white"/>
<path d="M2650.88 1901.39H2432.8C2328.49 1901.39 2248.69 1874.53 2193.38 1820.79C2139.64 1765.48 2112.78 1687.26 2112.78 1586.12V903.412H1930.25V663.993H2025.07C2070.9 663.993 2101.72 653.72 2117.52 633.176C2134.9 611.051 2143.59 578.655 2143.59 535.986V325.012H2416.2V663.993H2669.84V903.412H2416.2V1659.6H2650.88V1901.39Z" fill="white"/>
<path d="M1545.3 483.833C1483.67 483.833 1438.63 469.61 1410.19 441.164C1381.74 411.138 1367.52 374.791 1367.52 332.122V284.712C1367.52 240.462 1381.74 204.115 1410.19 175.669C1438.63 147.223 1483.67 133 1545.3 133C1606.94 133 1651.98 147.223 1680.42 175.669C1708.87 204.115 1723.09 240.462 1723.09 284.712V332.122C1723.09 374.791 1708.87 411.138 1680.42 441.164C1651.98 469.61 1606.94 483.833 1545.3 483.833ZM1393.59 1901.39V663.991H1697.02V1901.39H1393.59Z" fill="white"/>
<path d="M303.423 1901.39H0V663.991H303.423V870.224H315.276C340.561 803.85 380.069 748.539 433.801 704.289C489.112 658.46 564.968 635.545 661.368 635.545C787.795 635.545 884.985 678.214 952.939 763.552C1022.47 847.309 1057.24 965.834 1057.24 1119.13V1901.39H753.818V1149.94C753.818 1063.02 738.014 997.441 706.408 953.191C674.801 907.362 622.65 884.447 549.955 884.447C508.866 884.447 469.358 892.349 431.43 908.152C393.502 922.375 362.686 944.499 338.981 974.526C315.276 1002.97 303.423 1039.32 303.423 1083.57V1901.39Z" fill="white"/>
<path d="M6004.21 2026.38C6023.32 2026.61 6057.91 2049.97 6075.98 2060.25L6180.6 2119.68L6317.76 2197.45C6340.89 2210.57 6364.36 2223.69 6387.32 2237.12C6394.17 2241.12 6398.67 2244.48 6402.85 2251.24C6408.79 2260.99 6410.52 2272.74 6407.63 2283.79C6399.93 2313.1 6372.46 2314.38 6347.78 2318.99L6258.87 2335.63C6242.18 2338.76 6214.88 2342.05 6200.85 2350.13C6188.68 2359.58 6175.73 2384.24 6167.23 2398.25L6125.08 2467.72C6117.86 2479.61 6110.93 2491.7 6103.07 2503.24C6083.55 2531.84 6037.01 2522.5 6029.93 2488.67C6026.31 2471.4 6024.21 2452.86 6021.46 2435.32L6003.72 2322.56L5977.9 2157.36C5973.59 2129.83 5968.89 2102.18 5965.01 2074.6C5961.31 2048.26 5978.2 2028.94 6004.21 2026.38ZM5751.05 2075.81C5757.15 2075.39 5775.45 2077.26 5782.3 2077.72C5797.08 2078.76 5810.96 2079.76 5825.73 2081.38C5843.46 2083.33 5853.68 2102.08 5845 2117.77C5840.56 2125.8 5835.22 2128.67 5826.62 2130.87C5814.6 2131.03 5797.53 2129 5785.15 2128.15C5776.33 2127.55 5758.03 2126.77 5750.39 2125.22C5746.04 2124.38 5741.91 2122.64 5738.26 2120.13C5719.54 2107.15 5727.99 2079.59 5751.05 2075.81ZM5855.77 1868.78C5865.25 1868.31 5872.31 1869.44 5879.09 1876.92C5892.66 1891.36 5904.98 1908.2 5918.54 1922.56C5934.85 1939.82 5937.71 1961.85 5911.51 1971.18C5905.6 1971.81 5899.8 1971.69 5894.45 1968.79C5886.31 1964.38 5838.62 1908.13 5836.45 1900.27C5834.74 1894.08 5835.56 1887.01 5838.69 1881.41C5842.54 1874.51 5848.49 1871.04 5855.77 1868.78ZM6078.75 1798.02C6085.46 1797.88 6091.48 1798.5 6097.24 1802.41C6101.3 1805.17 6105.54 1810.17 6106.45 1815.11C6108.5 1826.14 6104.12 1897.63 6098.76 1905.35C6093.98 1912.25 6088.66 1915.63 6080.47 1917.26C6075.22 1917.61 6070.4 1916.99 6065.7 1914.49C6060.6 1911.77 6055.05 1906.34 6053.57 1900.58C6050.95 1890.38 6056.28 1818.09 6061.11 1810.02C6065.13 1803.32 6071.27 1799.71 6078.75 1798.02Z" fill="black"/>
</svg>
